HIERARCHY
ROOT Hips
{
	OFFSET 0.000000 0.000000 0.000000 
	CHANNELS 6 Xposition Yposition Zposition Yrotation Zrotation Xrotation 
	JOINT Lumbar
	{
		OFFSET 0.000000 0.000000 0.000000 
		CHANNELS 3 Zrotation Xrotation Yrotation
		JOINT Neck
		{
			OFFSET 0.000000 0.445665 0.000000 
			CHANNELS 3 Zrotation Xrotation Yrotation
			End Site
			{
				OFFSET 0.000000 0.227535 0.000000 
			}
		}
		JOINT RightShoulder
		{
			OFFSET 0.019635 0.377685 0.194865 
			CHANNELS 3 Zrotation Xrotation Yrotation
			JOINT RightElbow
			{
				OFFSET 0.000000 -0.243375 0.000000 
				CHANNELS 2 Zrotation Yrotation
				JOINT RightWrist
				{
					OFFSET 0.000000 -0.264825 0.000000 
					CHANNELS 2 Zrotation Xrotation
					End Site
					{
						OFFSET 0.006600 -0.176220 0.000990 
					}
				}
			}
		}
		JOINT LeftShoulder
		{
			OFFSET 0.019635 0.377685 -0.194865 
			CHANNELS 3 Zrotation Xrotation Yrotation
			JOINT LeftElbow
			{
				OFFSET 0.000000 -0.243375 0.000000 
				CHANNELS 2 Zrotation Yrotation
				JOINT LeftWrist
				{
					OFFSET 0.000000 -0.264825 0.000000 
					CHANNELS 2 Zrotation Xrotation
					End Site
					{
						OFFSET 0.006600 -0.176220 -0.000990 
					}
				}
			}
		}
	}
	JOINT RightHip
	{
		OFFSET 0.052140 -0.069960 0.075570 
		CHANNELS 3 Zrotation Xrotation Yrotation
		JOINT RightKnee
		{
			OFFSET 0.000000 -0.402270 0.000000 
			CHANNELS 1 Zrotation
			JOINT RightAnkle
			{
				OFFSET 0.000000 -0.404085 0.000000 
				CHANNELS 3 Zrotation Xrotation Yrotation
				End Site
				{
					OFFSET 0.204105 -0.089430 0.008415 
				}
			}
		}
	}
	JOINT LeftHip
	{
		OFFSET 0.052140 -0.069960 -0.075570 
		CHANNELS 3 Zrotation Xrotation Yrotation
		JOINT LeftKnee
		{
			OFFSET 0.000000 -0.402270 0.000000 
			CHANNELS 1 Zrotation
			JOINT LeftAnkle
			{
				OFFSET 0.000000 -0.404085 0.000000 
				CHANNELS 3 Zrotation Xrotation Yrotation
				End Site
				{
					OFFSET 0.204105 -0.089430 -0.008415 
				}
			}
		}
	}
}
MOTION
Frames: 10
Frame Time: 0.02
0.01859 -0.66986 0.17295 64.34335 -22.2669 -19.61053 26.32439 11.58145 -24.76707 15.34875 -11.52919 -0.82011 139.53914 -3.67395 64.16972 20.25082 45.95449 40.98566 -7.3095 79.64037 -9.89875 -29.09383 58.89968 -109.04374 -42.4456 6.55405 129.72614 12.99696 37.82308 -139.48855 19.79568 -15.20772 -1.99914 107.9669 2.66608 -4.74369 -148.91173 23.89218 -35.80948 -17.18807
0.0194 -0.66928 0.17523 64.5852 -22.48038 -19.69653 26.32886 11.67153 -25.11734 15.31337 -11.44896 -0.82013 140.01573 -3.91782 64.17069 20.90558 46.05769 41.12175 -7.28621 78.97791 -9.8547 -28.90094 60.52031 -108.90105 -41.80475 6.56729 129.82675 13.10979 37.77132 -139.5134 19.56662 -15.75962 -2.81982 108.77788 2.6535 -3.35039 -148.91173 23.89146 -35.8074 -17.18242
0.02038 -0.66861 0.17767 64.80454 -22.64646 -19.84508 26.25986 11.75716 -25.57418 15.30159 -11.42641 -0.82015 140.48625 -4.14133 64.17091 21.49495 46.24018 41.18625 -7.25047 78.51861 -9.88397 -28.62922 61.66342 -108.9457 -41.30305 6.59525 129.95601 13.25359 37.61335 -139.57359 17.83759 -15.83746 -3.89824 109.59598 2.72032 -2.44701 -148.91173 23.89041 -35.80456 -17.17522
0.02131 -0.668 0.17998 65.02874 -22.82854 -19.9577 26.22946 11.83336 -25.97124 15.26589 -11.38302 -0.82017 140.94594 -4.36351 64.17079 22.09235 46.40435 41.29119 -7.21823 77.96871 -9.87729 -28.39663 63.0035 -108.90609 -40.73645 6.61725 130.06924 13.38106 37.50261 -139.61871 16.89221 -16.1642 -4.82638 110.39142 2.75708 -1.44657 -148.91173 23.88944 -35.80199 -17.169
0.02215 -0.66729 0.18256 65.27241 -23.03835 -20.1019 26.1773 11.95569 -26.41816 15.29064 -11.31536 -0.82019 141.46497 -4.63205 64.17115 22.78252 46.49822 41.36036 -7.19498 77.40885 -9.87914 -28.15149 64.43505 -108.85417 -40.16519 6.63583 130.19649 13.52009 37.3805 -139.65535 15.61698 -16.4258 -5.91039 111.28003 2.76797 0.08729 -148.91173 23.88876 -35.79968 -17.16163
0.02321 -0.66678 0.18459 65.47072 -23.17737 -20.19507 26.15314 11.98258 -26.78483 15.19389 -11.31266 -0.82021 141.85841 -4.79759 64.17121 23.26409 46.75287 41.4881 -7.15043 76.91843 -9.88167 -27.91243 65.56174 -108.87573 -39.64175 6.66509 130.30077 13.64139 37.26262 -139.71953 14.6231 -16.67497 -6.7261 111.96999 2.85127 0.40938 -148.91173 23.88742 -35.79671 -17.15629
0.02492 -0.66683 0.18511 65.55791 -23.13399 -20.13423 26.22153 11.7365 -26.91573 14.74846 -11.47379 -0.82023 141.90354 -4.69616 64.17124 23.17795 47.46589 41.79337 -7.04608 76.57847 -9.86785 -27.7201 65.94011 -109.05393 -39.21002 6.72078 130.33523 13.70864 37.18608 -139.853 14.90666 -17.08384 -6.72147 112.1345 3.12162 -2.70734 -148.91172 23.884 -35.79162 -17.15691
0.02685 -0.66707 0.18506 65.59926 -23.02029 -20.01973 26.32102 11.39666 -26.96008 14.18085 -11.69854 -0.82026 141.82254 -4.48984 64.17124 22.88541 48.33135 42.16067 -6.92148 76.30099 -9.85265 -27.53514 66.02998 -109.30083 -38.82482 6.7866 130.3452 13.75613 37.11915 -140.01312 15.48826 -17.47279 -6.4381 112.09326 3.4612 -6.99237 -148.91172 23.87999 -35.78597 -17.15962
0.02863 -0.66722 0.18523 65.65641 -22.93703 -19.92812 26.40806 11.10679 -27.03581 13.67289 -11.89565 -0.82029 141.80116 -4.32272 64.17123 22.69201 49.10481 42.50104 -6.80875 75.98897 -9.8386 -27.339 66.26761 -109.51791 -38.42345 6.84753 130.36588 13.81088 37.04763 -140.16059 15.83239 -17.80904 -6.29113 112.12827 3.76475 -10.60359 -148.91172 23.87646 -35.7809 -17.16136
0.03062 -0.6674 0.18555 65.73363 -22.85801 -19.84409 26.48562 10.78566 -27.14785 13.14721 -12.09041 -0.82031 141.77068 -4.18877 64.17125 22.47337 49.97748 42.83363 -6.68425 75.70704 -9.82469 -27.17075 66.42367 -109.73582 -38.00387 6.91037 130.38967 13.87445 36.97273 -140.31197 16.55388 -18.38814 -6.11411 112.23525 4.08968 -14.82572 -148.91171 23.87202 -35.77444 -17.16312
